<svg width="456" height="577" viewBox="0 0 456 577" fill="none" xmlns="http://www.w3.org/2000/svg">
    <circle r="12.5" transform="matrix(-1 0 0 1 54.5 138.5)" fill="#0B3D91"/>
    <path d="M212.5 98.5C92.9 96.5 51 32.6667 45 1H455V576.5C454.167 529.667 426.7 435.6 323.5 434C220.3 432.4 242.833 336.667 267 289C298.667 226.333 332.1 100.5 212.5 98.5Z" fill="#0B3D91" stroke="#0B3D91"/>
    <circle cx="237.5" cy="173.5" r="22.5" fill="#0B3D91"/>
    <circle r="7.5" transform="matrix(-1 0 0 1 190.5 480.5)" fill="#0B3D91"/>
    <circle r="7.5" transform="matrix(-1 0 0 1 84.5 281.5)" fill="#0B3D91"/>
    <circle r="7.5" transform="matrix(-1 0 0 1 7.5 52.5)" fill="#0B3D91"/>
    <circle cx="250" cy="458" r="15" fill="#0B3D91"/>
    <circle cx="298" cy="525" r="15" fill="#0B3D91"/>
    <circle cx="188" cy="323" r="15" fill="#0B3D91"/>
    <path d="M160 151C160 167.569 146.569 181 130 181C113.431 181 100 167.569 100 151C100 134.431 113.431 121 130 121C146.569 121 160 134.431 160 151Z" fill="#0B3D91"/>
</svg>
